# xmcd CD database file
#
# Track frame offsets:
#	150
#	16102
#	32342
#	53930
#	71500
#	90415
#	110322
#	130907
#	154322
#	174840
#	192345
#	213202
#
# Disc length: 2909 seconds
#
# Revision: 0
# Processed by: cddbd v1.5PL3 Copyright (c) Steve Scherf et al.
# Submitted via: CDex 1.51
#
DISCID=900b5b0c
DTITLE=浜崎貴司 - 新呼吸
DYEAR=1999
DGENRE=Pop
TTITLE0=ココロの底
TTITLE1=まっ逆さま
TTITLE2=テノヒラ
TTITLE3=誰かが誰かに
TTITLE4=首都高速
TTITLE5=ヒカリの春
TTITLE6=瞬間接着愛
TTITLE7=DAN DAN
TTITLE8=どんな気持ちだい？
TTITLE9=呼吸のしるし
TTITLE10=サンクチュアリ(SEIなるふたり)
TTITLE11=新呼吸
EXTD=YEAR: 1999
EXTT0=
EXTT1=
EXTT2=
EXTT3=
EXTT4=
EXTT5=
EXTT6=
EXTT7=
EXTT8=
EXTT9=
EXTT10=
EXTT11=
PLAYORDER=
